<svg xmlns="http://www.w3.org/2000/svg" width="59" height="59" viewBox="0 0 59 59"><path d="M68.748,36.478H67.243V26.316A4.2,4.2,0,0,0,63.1,22.053H61.969V15.262A4.081,4.081,0,0,0,58.08,11h-.253L14.889,22.041c-.012,0-.036.012-.048.012A4.235,4.235,0,0,0,11,26.316V65.738A4.2,4.2,0,0,0,15.142,70H63.1a4.225,4.225,0,0,0,4.262-4.262V55.31h1.385A1.182,1.182,0,0,0,70,54.058V37.743A1.261,1.261,0,0,0,68.748,36.478ZM58.32,13.384a1.852,1.852,0,0,1,1.252,1.878v6.779H24.931L58.32,13.384Zm6.538,52.353A1.827,1.827,0,0,1,63.1,67.616H15.142a1.827,1.827,0,0,1-1.758-1.878V26.316a1.827,1.827,0,0,1,1.758-1.878H62.968a1.827,1.827,0,0,1,1.758,1.878V36.478H52.3a9.416,9.416,0,0,0,0,18.832H64.859Zm2.625-12.811H52.3a6.9,6.9,0,1,1,0-13.8H67.483Z" transform="translate(-11 -11)" fill="#dc7676"/></svg>