<svg xmlns="http://www.w3.org/2000/svg" width="139.596" height="30" viewBox="0 0 139.596 30">
  <path id="Union_3" data-name="Union 3" d="M2187.2-5191.675a4.8,4.8,0,0,1-1.776-1.8,4.84,4.84,0,0,1-.636-2.418,4.847,4.847,0,0,1,.653-2.446,4.786,4.786,0,0,1,1.792-1.8,4.837,4.837,0,0,1,2.458-.658,4.863,4.863,0,0,1,2.446.651,4.786,4.786,0,0,1,1.8,1.793,4.831,4.831,0,0,1,.658,2.459,4.85,4.85,0,0,1-.633,2.413,4.8,4.8,0,0,1-1.773,1.806,4.793,4.793,0,0,1-2.5.678A4.806,4.806,0,0,1,2187.2-5191.675Zm.385-7.875a4.254,4.254,0,0,0-1.542,1.537,4.1,4.1,0,0,0-.57,2.116,4.141,4.141,0,0,0,.567,2.109,4.135,4.135,0,0,0,1.549,1.545,4.139,4.139,0,0,0,2.1.564,4.1,4.1,0,0,0,2.106-.567,4.244,4.244,0,0,0,1.542-1.535,4.1,4.1,0,0,0,.571-2.116,4.111,4.111,0,0,0-.567-2.106,4.236,4.236,0,0,0-1.536-1.543,4.088,4.088,0,0,0-2.116-.571A4.115,4.115,0,0,0,2187.587-5199.549Zm-17.878,7.83-5.708-9.153-5.648,9.153H2149.4l9.713-14.981-9.133-14.3h8.772l5.287,9.053,5.087-9.053h9.032l-9.272,14.921,9.973,14.36Zm-41.374,0V-5221h17.384v6.349h-9.473v4.606h8.772v6.35h-8.772v5.527h9.473v6.449Zm-13.277,0-6.208-10.656h-2v10.656h-7.91V-5221h9.593q11.936,0,11.937,8.652,0,5.088-4.967,7.872l8.531,12.758Zm-8.211-16.6h1.482q4.147,0,4.146-3.665,0-3.023-4.066-3.025h-1.562Zm-23.831,16.6V-5221h7.951v29.281Zm-20.866,0v-22.812H2055V-5221h22.191v6.469h-7.13v22.813Zm128.931-1.269-1.35-2.309h-.88v2.309h-.965v-5.81h1.7a2.448,2.448,0,0,1,1.587.423,1.588,1.588,0,0,1,.5,1.291,1.586,1.586,0,0,1-.276.922,1.643,1.643,0,0,1-.78.6l1.552,2.576Zm-2.23-3.111h.7a1.245,1.245,0,0,0,.837-.27.867.867,0,0,0,.316-.688.825.825,0,0,0-.28-.7,1.486,1.486,0,0,0-.887-.211h-.691Z" transform="translate(-2055 5221)" fill="#fff"/>
</svg>
