<svg xmlns="http://www.w3.org/2000/svg" width="158.212" height="34" viewBox="0 0 158.212 34"><path d="M2204.832-5187.765a5.441,5.441,0,0,1-2.013-2.044,5.483,5.483,0,0,1-.721-2.741,5.5,5.5,0,0,1,.739-2.772,5.429,5.429,0,0,1,2.031-2.04,5.486,5.486,0,0,1,2.786-.745,5.513,5.513,0,0,1,2.772.738,5.427,5.427,0,0,1,2.038,2.033,5.47,5.47,0,0,1,.746,2.787,5.5,5.5,0,0,1-.717,2.734,5.439,5.439,0,0,1-2.01,2.046,5.427,5.427,0,0,1-2.83.769A5.448,5.448,0,0,1,2204.832-5187.765Zm.436-8.924a4.819,4.819,0,0,0-1.748,1.741,4.644,4.644,0,0,0-.646,2.4,4.7,4.7,0,0,0,.643,2.391,4.69,4.69,0,0,0,1.755,1.751,4.7,4.7,0,0,0,2.383.639,4.65,4.65,0,0,0,2.387-.643,4.808,4.808,0,0,0,1.748-1.74,4.649,4.649,0,0,0,.647-2.4,4.659,4.659,0,0,0-.643-2.387,4.8,4.8,0,0,0-1.741-1.749,4.635,4.635,0,0,0-2.4-.647A4.66,4.66,0,0,0,2205.269-5196.688Zm-20.262,8.873-6.469-10.373-6.4,10.373h-10.145L2173-5204.794,2162.649-5221h9.942l5.992,10.26,5.765-10.26h10.237l-10.509,16.91,11.3,16.274Zm-46.892,0V-5221h19.7v7.2H2147.08v5.22h9.943v7.2h-9.943v6.264h10.737v7.309Zm-15.047,0-7.036-12.076h-2.271v12.076H2104.8V-5221h10.872q13.528,0,13.529,9.805,0,5.766-5.629,8.921l9.669,14.458Zm-9.306-18.817h1.68q4.7,0,4.7-4.153,0-3.427-4.608-3.428h-1.77Zm-27.009,18.817V-5221h9.012v33.185Zm-23.648,0v-25.853H2055V-5221h25.15v7.332h-8.081v25.853Zm146.125-1.438-1.53-2.616h-1v2.616h-1.093v-6.585h1.929a2.776,2.776,0,0,1,1.8.48,1.8,1.8,0,0,1,.572,1.463,1.8,1.8,0,0,1-.313,1.045,1.861,1.861,0,0,1-.884.677l1.759,2.919Zm-2.527-3.525h.8a1.411,1.411,0,0,0,.949-.306.981.981,0,0,0,.358-.78.934.934,0,0,0-.317-.795,1.683,1.683,0,0,0-1.006-.239h-.783Z" transform="translate(-2055 5221)" fill="#2b57d3"/></svg>